<svg width="24" height="24" viewBox="0 0 24 24" fill="none" xmlns="http://www.w3.org/2000/svg">
<path fill-rule="evenodd" clip-rule="evenodd" d="M5 11C5 7.691 7.691 5 11 5C14.309 5 17 7.691 17 11C17 14.309 14.309 17 11 17C7.691 17 5 14.309 5 11ZM20.707 19.293L17.312 15.897C18.365 14.543 19 12.846 19 11C19 6.589 15.411 3 11 3C6.589 3 3 6.589 3 11C3 15.411 6.589 19 11 19C12.846 19 14.543 18.365 15.897 17.312L19.293 20.707C19.488 20.902 19.744 21 20 21C20.256 21 20.512 20.902 20.707 20.707C21.098 20.316 21.098 19.684 20.707 19.293Z" fill="white"/>
<mask id="mask0_241_863" style="mask-type:alpha" maskUnits="userSpaceOnUse" x="2" y="2" width="20" height="20">
<path fill-rule="evenodd" clip-rule="evenodd" d="M5 11C5 7.691 7.691 5 11 5C14.309 5 17 7.691 17 11C17 14.309 14.309 17 11 17C7.691 17 5 14.309 5 11ZM20.707 19.293L17.312 15.897C18.365 14.543 19 12.846 19 11C19 6.589 15.411 3 11 3C6.589 3 3 6.589 3 11C3 15.411 6.589 19 11 19C12.846 19 14.543 18.365 15.897 17.312L19.293 20.707C19.488 20.902 19.744 21 20 21C20.256 21 20.512 20.902 20.707 20.707C21.098 20.316 21.098 19.684 20.707 19.293Z" fill="white"/>
<path d="M20.707 19.293L20.3534 19.6465L20.3534 19.6466L20.707 19.293ZM17.312 15.897L16.9173 15.5901L16.6464 15.9384L16.9584 16.2505L17.312 15.897ZM15.897 17.312L16.2505 16.9584L15.9384 16.6464L15.5901 16.9173L15.897 17.312ZM19.293 20.707L19.6466 20.3534L19.6465 20.3534L19.293 20.707ZM5.5 11C5.5 7.96714 7.96714 5.5 11 5.5V4.5C7.41486 4.5 4.5 7.41486 4.5 11H5.5ZM11 5.5C14.0329 5.5 16.5 7.96714 16.5 11H17.5C17.5 7.41486 14.5851 4.5 11 4.5V5.5ZM16.5 11C16.5 14.0329 14.0329 16.5 11 16.5V17.5C14.5851 17.5 17.5 14.5851 17.5 11H16.5ZM11 16.5C7.96714 16.5 5.5 14.0329 5.5 11H4.5C4.5 14.5851 7.41486 17.5 11 17.5V16.5ZM21.0606 18.9395L17.6656 15.5435L16.9584 16.2505L20.3534 19.6465L21.0606 18.9395ZM17.7067 16.204C18.8243 14.7668 19.5 12.9629 19.5 11H18.5C18.5 12.7291 17.9057 14.3192 16.9173 15.5901L17.7067 16.204ZM19.5 11C19.5 6.31286 15.6871 2.5 11 2.5V3.5C15.1349 3.5 18.5 6.86514 18.5 11H19.5ZM11 2.5C6.31286 2.5 2.5 6.31286 2.5 11H3.5C3.5 6.86514 6.86514 3.5 11 3.5V2.5ZM2.5 11C2.5 15.6871 6.31286 19.5 11 19.5V18.5C6.86514 18.5 3.5 15.1349 3.5 11H2.5ZM11 19.5C12.9629 19.5 14.7668 18.8243 16.204 17.7067L15.5901 16.9173C14.3192 17.9057 12.7291 18.5 11 18.5V19.5ZM15.5435 17.6656L18.9395 21.0606L19.6465 20.3534L16.2505 16.9584L15.5435 17.6656ZM18.9394 21.0606C19.2318 21.3529 19.6165 21.5 20 21.5V20.5C19.8715 20.5 19.7442 20.4511 19.6466 20.3534L18.9394 21.0606ZM20 21.5C20.3835 21.5 20.7682 21.3529 21.0606 21.0606L20.3534 20.3534C20.2558 20.4511 20.1285 20.5 20 20.5V21.5ZM21.0606 21.0606C21.6468 20.4743 21.6468 19.5257 21.0606 18.9394L20.3534 19.6466C20.5492 19.8423 20.5492 20.1577 20.3534 20.3534L21.0606 21.0606Z" fill="white"/>
</mask>
<g mask="url(#mask0_241_863)">
</g>
</svg>
