<svg width="20" height="20" viewBox="0 0 20 20" fill="none" xmlns="http://www.w3.org/2000/svg">
<path fill-rule="evenodd" clip-rule="evenodd" d="M10 0C4.47717 0 0 4.47717 0 10C0 15.5228 4.47717 20 10 20C15.5228 20 20 15.5228 20 10C20 4.47717 15.5228 0 10 0ZM9.7215 8.47417L9.7005 8.12812C9.63754 7.23129 10.1901 6.41213 11.0645 6.09438C11.3862 5.98137 11.9318 5.96725 12.2886 6.06612C12.4285 6.1085 12.6943 6.24971 12.8831 6.37683L13.2259 6.60987L13.6036 6.48983C13.8135 6.42625 14.0932 6.32033 14.2191 6.24971C14.338 6.18617 14.443 6.15083 14.443 6.17204C14.443 6.29208 14.1842 6.70167 13.9673 6.92763C13.6735 7.24542 13.7575 7.27367 14.352 7.06179C14.7088 6.94175 14.7158 6.94175 14.6458 7.07592C14.6038 7.14654 14.387 7.39371 14.1562 7.61967C13.7645 8.00808 13.7435 8.05046 13.7435 8.37529C13.7435 8.87667 13.5057 9.92179 13.2678 10.4938C12.8272 11.5672 11.8829 12.6758 10.9386 13.2337C9.60958 14.0176 7.83987 14.2153 6.35 13.7563C5.85337 13.6009 5 13.2055 5 13.1349C5 13.1137 5.25879 13.0854 5.57358 13.0784C6.23108 13.0642 6.88858 12.8806 7.44817 12.5558L7.82592 12.3298L7.39221 12.1815C6.77667 11.9697 6.22408 11.4824 6.08421 11.0234C6.04221 10.8751 6.05621 10.868 6.44792 10.868L6.85362 10.861L6.51087 10.6986C6.10517 10.4938 5.73446 10.1477 5.55258 9.79467C5.41967 9.54046 5.25183 8.89783 5.30079 8.84842C5.31475 8.82725 5.46167 8.86958 5.62954 8.92608C6.11217 9.10262 6.17512 9.06025 5.89533 8.76367C5.37071 8.227 5.20983 7.429 5.46167 6.67342L5.58058 6.33446L6.04221 6.79346C6.98654 7.71854 8.09871 8.26937 9.37175 8.43179L9.7215 8.47417Z" fill="white"/>
</svg>
